<svg xmlns="http://www.w3.org/2000/svg" xmlns:xlink="http://www.w3.org/1999/xlink" id="instaN" x="0px" y="0px" viewBox="0 0 115 115" style="enable-background:new 0 0 115 115;" xml:space="preserve"> <style type="text/css"> .st0{fill:#7293B2;} </style> <g> <path class="st0" d="M70.1,32.3l-25.3,0.1c-7.2,0-13.1,5.9-13.1,13.1v25.3c0,7.2,5.9,13.1,13.1,13.1h25.3c7.2,0,13.1-5.9,13.1-13.1 V45.4C83.2,38.2,77.3,32.3,70.1,32.3z M57.7,73.7c-8.6,0-15.6-7-15.6-15.6s7-15.6,15.6-15.6c8.7,0,15.7,7,15.6,15.6 C73.3,66.7,66.3,73.7,57.7,73.7z M74.3,45.1c-2,0-3.7-1.6-3.7-3.7c0-2,1.6-3.7,3.7-3.7c2,0,3.7,1.7,3.7,3.7S76.4,45.1,74.3,45.1z"></path> <circle class="st0" cx="57.7" cy="58.1" r="10"></circle> <path class="st0" d="M57.5,4.1C27.6,4.1,3.4,28.3,3.4,58.2s24.2,54.1,54.1,54.1s54.1-24.2,54.1-54.1S87.4,4.1,57.5,4.1z M89.2,70.7 c0,10.6-8.5,19.1-19.1,19.1H44.8c-10.5,0-19.1-8.5-19.1-19.1V45.4c0-10.5,8.5-19.1,19.1-19.1h25.3c10.5,0,19.1,8.5,19.1,19.1V70.7z "></path> </g> </svg>